<?xml version="1.0" standalone="no"?>
<!DOCTYPE svg PUBLIC "-//W3C//DTD SVG 20010904//EN"
 "http://www.w3.org/TR/2001/REC-SVG-20010904/DTD/svg10.dtd">
<svg version="1.0" xmlns="http://www.w3.org/2000/svg"
 width="600.000000pt" height="600.000000pt" viewBox="0 0 600.000000 600.000000"
 preserveAspectRatio="xMidYMid meet">
<metadata>
Created by potrace 1.14, written by Peter Selinger 2001-2017
</metadata>
<g transform="translate(0.000000,600.000000) scale(0.100000,-0.100000)"
fill="#000000" stroke="none">
<path d="M2013 1793 c-10 -3 -13 -54 -13 -204 l0 -199 30 0 30 0 2 159 3 159
85 -156 c85 -157 85 -157 123 -160 l37 -3 0 206 0 206 -27 -3 -28 -3 -3 -155
-3 -155 -80 150 c-44 82 -86 153 -92 157 -13 9 -45 9 -64 1z"/>
<path d="M2380 1789 c0 -8 66 -246 106 -381 4 -13 16 -18 42 -18 l37 0 39 150
c21 83 40 149 41 148 2 -2 13 -39 25 -83 12 -44 30 -111 41 -148 l20 -68 37 3
36 3 57 195 c31 107 55 198 52 203 -9 14 -52 7 -57 -10 -3 -10 -22 -81 -42
-158 -20 -77 -39 -144 -42 -149 -3 -5 -25 62 -49 150 -24 87 -48 163 -52 167
-5 5 -19 7 -32 5 -21 -3 -27 -17 -62 -160 -22 -87 -42 -158 -46 -158 -4 0 -12
21 -19 48 -72 270 -73 272 -103 272 -16 0 -29 -5 -29 -11z"/>
<path d="M2992 1787 c-9 -11 -12 -64 -10 -203 l3 -189 80 -3 c168 -6 246 72
232 230 -10 116 -72 167 -212 176 -64 4 -83 1 -93 -11z m150 -47 c76 -22 113
-110 86 -206 -18 -65 -60 -94 -134 -94 l-54 0 0 155 0 155 33 0 c17 0 49 -5
69 -10z"/>
<path d="M3387 1793 c-4 -3 -7 -96 -7 -205 l0 -198 30 0 30 0 0 90 c0 88 1 90
24 90 39 0 73 -36 102 -110 25 -64 30 -70 56 -70 16 0 28 5 28 13 -1 20 -58
148 -75 167 -14 16 -14 19 9 33 13 9 29 32 36 52 28 86 -37 145 -161 145 -36
0 -69 -3 -72 -7z m151 -60 c12 -10 22 -25 23 -33 6 -56 -17 -80 -77 -80 l-44
0 0 65 0 65 39 0 c22 0 47 -7 59 -17z"/>
<path d="M3826 1791 c-6 -9 -146 -391 -146 -398 0 -2 13 -3 30 -3 26 0 31 5
47 50 l18 51 85 -3 84 -3 15 -47 c13 -42 18 -48 43 -48 20 0 28 5 28 18 -1 9
-31 100 -69 202 -66 183 -68 185 -98 188 -17 2 -34 -1 -37 -7z m60 -143 c15
-46 29 -89 32 -95 3 -10 -13 -13 -63 -13 -49 0 -65 3 -62 13 3 6 18 49 33 95
16 45 29 82 30 82 1 0 15 -37 30 -82z"/>
</g>
</svg>
